<svg xmlns="http://www.w3.org/2000/svg" viewBox="0 0 128 128"><path d="M96 51h8c26 0 24 35-2 35h-8" fill="none" stroke="#D78D53" stroke-width="10"/><path fill="#FFF0D5" stroke="#173E3D" stroke-width="5" d="M23 47h70v30c0 31-70 31-70 0z"/><ellipse cx="58" cy="47" rx="35" ry="10" fill="#D78D53" stroke="#173E3D" stroke-width="5"/><ellipse cx="58" cy="47" rx="25" ry="5" fill="#743F2E"/><path d="M42 31c-9-12 9-13 0-25m20 25c-9-12 9-13 0-25" fill="none" stroke="#FFE0A6" stroke-width="7" stroke-linecap="round"/><path d="M16 108h93" stroke="#D78D53" stroke-width="8" stroke-linecap="round"/><path fill="#D78D53" d="m55 66 4 8 9 1-7 6 2 9-8-4-7 4 1-9-6-6 9-1z"/></svg>
