<svg xmlns="http://www.w3.org/2000/svg" viewBox="0 0 128 128"><rect x="5" y="5" width="118" height="118" rx="30" fill="#123F36" stroke="#62C8A7" stroke-width="5"/><path d="M29 16h37" stroke="#FFF0DD" stroke-width="3" stroke-linecap="round" opacity=".35"/><g transform="translate(25 25) scale(3.25)" fill="none" stroke="#FFF0DD" stroke-width="1.9" stroke-linecap="round" stroke-linejoin="round"><path d="M3.85 8.62a4 4 0 0 1 4.78-4.77 4 4 0 0 1 6.74 0 4 4 0 0 1 4.78 4.78 4 4 0 0 1 0 6.74 4 4 0 0 1-4.77 4.78 4 4 0 0 1-6.75 0 4 4 0 0 1-4.78-4.77 4 4 0 0 1 0-6.76Z"></path><path d="m9 12 2 2 4-4"></path></g></svg>