<svg xmlns="http://www.w3.org/2000/svg" viewBox="0 0 128 128"><rect x="5" y="5" width="118" height="118" rx="30" fill="#173E3D" stroke="#DDA66D" stroke-width="5"/><path d="M29 16h37" stroke="#FFF0DD" stroke-width="3" stroke-linecap="round" opacity=".35"/><g transform="translate(25 25) scale(3.25)" fill="none" stroke="#FFF0DD" stroke-width="1.9" stroke-linecap="round" stroke-linejoin="round"><path d="M2 18h1.4c1.3 0 2.5-.6 3.3-1.7l6.1-8.6c.7-1.1 2-1.7 3.3-1.7H22"></path><path d="m18 2 4 4-4 4"></path><path d="M2 6h1.9c1.5 0 2.9.9 3.6 2.2"></path><path d="M22 18h-5.9c-1.3 0-2.6-.7-3.3-1.8l-.5-.8"></path><path d="m18 14 4 4-4 4"></path></g></svg>