<svg xmlns="http://www.w3.org/2000/svg" viewBox="0 0 128 128"><rect x="5" y="5" width="118" height="118" rx="30" fill="#173E3D" stroke="#DDA66D" stroke-width="5"/><path d="M29 16h37" stroke="#FFF0DD" stroke-width="3" stroke-linecap="round" opacity=".35"/><g transform="translate(25 25) scale(3.25)" fill="none" stroke="#FFF0DD" stroke-width="1.9" stroke-linecap="round" stroke-linejoin="round"><path d="M2 9a3 3 0 0 1 0 6v2a2 2 0 0 0 2 2h16a2 2 0 0 0 2-2v-2a3 3 0 0 1 0-6V7a2 2 0 0 0-2-2H4a2 2 0 0 0-2 2Z"></path><path d="M13 5v2"></path><path d="M13 17v2"></path><path d="M13 11v2"></path></g></svg>